<mxfile host="app.diagrams.net" modified="2024-04-07T07:45:30.908Z" agent="Mozilla/5.0 (Macintosh; Intel Mac OS X 10_15_7) AppleWebKit/537.36 (KHTML, like Gecko) Chrome/120.0.0.0 Safari/537.36" version="24.2.2" etag="SgL02AiDt9ERaDHo3-Yb" type="github">
  <diagram name="第 1 页" id="cdLSzM8ef5o0HuCaIShK">
    <mxGraphModel>
      <root>
        <mxCell id="0" />
        <mxCell id="1" parent="0" />
      </root>
    </mxGraphModel>
  </diagram>
</mxfile>
